<svg width="144" height="72" viewBox="0 0 144 72" fill="none" xmlns="http://www.w3.org/2000/svg">
<g clip-path="url(#clip0_1790_89)">
<path d="M12.5221 5.51919C13.0261 5.01531 14.2389 3.92094 14.2389 3.18874C14.2389 2.00777 12.7662 2.00777 11.9078 2.00777V1.03149H20.1219V2.00777C17.2867 2.06288 15.0973 4.55079 13.2387 6.46397L10.5768 9.14872L16.3102 17.8879C17.4915 19.6909 18.7595 21.8717 21.2166 21.667V22.6433H12.1204V21.667C13.0025 21.667 14.5697 21.8166 14.5697 20.8404C14.5697 20.3129 13.8609 19.3681 13.5616 18.9508L8.48192 11.2745L5.73337 14.0773V17.6202C5.73337 20.8955 6.11927 21.667 8.48192 21.667V22.6433H0V21.667C2.42566 21.667 2.80368 20.8955 2.80368 17.6202V6.05457C2.80368 2.81083 2.41778 2.00777 0 2.00777V1.03149H8.47404V2.00777C6.11139 2.00777 5.72549 2.80295 5.72549 6.05457V12.3767L12.5221 5.51919Z" fill="#1A2E51"/>
<path d="M30.8404 13.4079C31.0215 11.3688 30.1316 8.85725 27.5642 8.85725C24.9968 8.85725 24.0202 11.4003 23.9572 13.4079H30.8404ZM23.8076 14.5259C23.8076 17.4232 24.666 21.7062 28.3596 21.7062C30.3364 21.7062 32.0532 20.6119 33.203 19.0215L33.7071 19.4939C32.4627 21.533 30.3994 22.9817 27.9737 22.9817C23.8391 22.9817 20.8228 19.6199 20.8228 15.5731C20.8228 11.7939 23.4532 7.89673 27.5878 7.89673C31.2814 7.89673 33.8173 11.0617 33.8173 14.5417H23.8076V14.5259Z" fill="#1A2E51"/>
<path d="M36.7471 5.14117C36.7471 2.57452 36.3297 2.69262 34.2349 2.54303V1.68486L39.3461 0V18.6043C39.3461 21.3835 39.3461 21.5567 41.3858 21.7929V22.6511H34.7704V21.7929C36.7471 21.5567 36.7471 21.3835 36.7471 18.6043V5.14117Z" fill="#1A2E51"/>
<path d="M52.9313 12.4946L52.2225 12.8804C50.7734 11.0224 49.0014 8.86512 46.6073 8.86512C45.4574 8.86512 44.2761 9.6603 44.2761 10.8728C44.2761 14.4787 53.5535 13.1166 53.5535 18.5176C53.5535 21.0606 51.1042 22.9738 48.7415 22.9738C48.0012 22.9738 47.4736 22.7691 46.7884 22.5644C46.434 22.4463 46.0796 22.2967 45.6937 22.2967C45.0715 22.2967 44.4809 22.5644 43.9768 22.9738L42.1418 17.9507L42.7955 17.6279C43.9138 19.486 46.6939 21.9975 48.9069 21.9975C50.2694 21.9975 51.5058 20.9662 51.5058 19.5726C51.5058 15.762 42.3151 17.4154 42.3151 12.0695C42.3151 9.55795 44.6226 7.88097 46.9538 7.88097C48.017 7.88097 49.0487 8.35336 49.8756 8.35336C50.4348 8.35336 50.8522 8.08567 51.2066 7.67627L52.9234 12.4868L52.9313 12.4946Z" fill="#1A2E51"/>
<path d="M64.9886 13.4079C65.1618 11.3688 64.2798 8.85725 61.7124 8.85725C59.145 8.85725 58.1684 11.4003 58.1054 13.4079H64.9886ZM57.9558 14.5259C57.9558 17.4232 58.8142 21.7062 62.5078 21.7062C64.4846 21.7062 66.2014 20.6119 67.3512 19.0215L67.8553 19.4939C66.6109 21.533 64.5476 22.9817 62.1219 22.9817C57.9873 22.9817 54.9709 19.6199 54.9709 15.5731C54.9709 11.7939 57.6014 7.89673 61.736 7.89673C65.4296 7.89673 67.9655 11.0617 67.9655 14.5417H57.9479L57.9558 14.5259Z" fill="#1A2E51"/>
<path d="M78.3062 12.5183C78.511 11.9829 78.9284 10.8964 78.9284 10.3059C78.9284 9.18794 77.5974 9.06984 76.739 9.06984V8.21167H83.0315V9.06984C82.5275 9.10134 81.9368 9.10134 81.5273 9.45563C80.6688 10.0776 79.96 12.0223 79.5741 13.0615L75.3214 23.6352C74.5259 25.7609 73.4943 28.1859 70.8638 28.1859C69.7691 28.1859 68.5642 27.4773 68.5642 26.2333C68.5642 25.3437 69.273 24.7295 70.1314 24.7295C71.2812 24.7295 71.612 25.879 72.3444 25.879C73.5573 25.879 74.0613 23.3124 74.4708 22.4227L70.2495 11.7625C69.6904 10.4083 69.3911 9.07772 67.6506 9.07772V8.21954H74.3291V9.07772C73.7069 9.07772 72.5571 9.10921 72.5571 9.93589C72.5571 10.3768 72.7618 10.9437 72.943 11.3531L75.8097 18.9743L78.3219 12.534L78.3062 12.5183Z" fill="#1A2E51"/>
<path d="M102.886 6.34574L102.145 6.70003C100.555 4.60577 97.6879 1.92102 94.9078 1.92102C90.0014 1.92102 88.6153 7.20391 88.6153 11.1641C88.6153 15.4156 90.8047 21.1709 95.8529 21.1709C99.011 21.1709 101.114 18.9822 102.618 16.447L103.24 16.8013C101.649 20.2891 98.6881 22.9738 94.7346 22.9738C88.9146 22.9738 85.2209 18.1633 85.2209 12.6364C85.2209 9.95164 86.103 7.25902 87.6151 5.01517C89.1508 2.65323 91.5765 0.700684 94.5613 0.700684C95.593 0.700684 96.3648 0.936878 97.0106 1.17307C97.6879 1.40927 98.2785 1.61397 98.9007 1.61397C99.6646 1.61397 100.263 1.31479 100.909 0.99199L102.886 6.33786V6.34574Z" fill="#1A2E51"/>
<path d="M112.517 14.9118C110.423 15.2661 107.17 16.6832 107.17 19.1318C107.17 20.5175 108.147 21.4071 109.328 21.4071C110.423 21.4071 111.777 20.5489 112.517 19.7223V14.9118ZM112.517 11.9908C112.517 10.5422 112.218 8.86519 110.446 8.86519C108.973 8.86519 108.351 9.84146 108.021 11.109C107.753 12.0223 107.367 12.5813 106.304 12.5813C105.477 12.5813 104.918 12.0774 104.918 11.2822C104.918 8.83369 108.375 7.88892 110.297 7.88892C111.541 7.88892 113.045 8.10149 114.045 8.9203C115.108 9.80209 115.108 11.0461 115.108 12.2821V19.0137C115.108 19.7223 115.108 21.0213 115.998 21.0213C116.502 21.0213 116.849 20.667 117.211 20.2813L117.597 20.9032C116.857 21.9976 115.975 22.966 114.581 22.966C113.368 22.966 112.691 22.0212 112.573 20.9032C111.21 21.9976 109.619 22.966 107.847 22.966C105.784 22.966 104.358 21.5488 104.358 19.4546C104.358 15.5259 109.501 14.5181 112.51 13.9276V11.9751L112.517 11.9908Z" fill="#1A2E51"/>
<path d="M122.976 18.6041C122.976 21.3834 122.976 21.5566 124.953 21.7928V22.6509H118.424V21.7928C120.369 21.5566 120.369 21.3834 120.369 18.6041V12.2584C120.282 10.6916 120.251 10.1326 118.447 10.1326V9.42405L122.968 7.68408V11.1719C124.086 9.78621 125.866 7.68408 127.811 7.68408C128.788 7.68408 129.639 8.36117 129.639 9.40043C129.639 10.3137 129.016 11.0538 128.048 11.0538C127.016 11.0538 126.63 10.2901 125.685 10.2901C124.653 10.2901 123.472 11.6522 122.968 12.4788V18.6199L122.976 18.6041Z" fill="#1A2E51"/>
<path d="M140.042 13.4079C140.223 11.3688 139.334 8.85725 136.766 8.85725C134.199 8.85725 133.222 11.4003 133.159 13.4079H140.042ZM133.009 14.5259C133.009 17.4232 133.868 21.7062 137.562 21.7062C139.538 21.7062 141.255 20.6119 142.405 19.0215L142.909 19.4939C141.673 21.533 139.601 22.9817 137.176 22.9817C133.041 22.9817 130.025 19.6199 130.025 15.5731C130.025 11.7939 132.655 7.89673 136.79 7.89673C140.483 7.89673 143.019 11.0617 143.019 14.5417H133.009V14.5259Z" fill="#1A2E51"/>
<path d="M33.7228 40.9167C33.0534 40.0821 32.0847 38.8697 30.0134 38.8697C28.6352 38.8697 27.7374 39.4759 27.194 40.0506C26.0127 41.2631 25.6898 43.0582 25.6898 44.7903C25.6898 47.1522 26.3592 48.6954 27.1625 49.5535C27.8634 50.3172 28.8636 50.7345 29.8874 50.7345C31.0688 50.7345 32.2895 50.1283 33.0849 49.2937C33.3054 49.0339 33.5338 48.7505 33.7228 48.4592V40.9088V40.9167ZM31.2578 29.3983C34.0457 29.2014 34.6521 29.044 36.5422 28.2803V49.2307C36.6052 50.5456 37.2116 50.64 38.7867 50.703V51.6635C36.7391 51.695 36.1957 51.758 34.2111 52.2383C33.9197 51.3407 33.8567 51.1203 33.7622 50.2228C32.7069 51.1203 31.4547 52.2068 28.8951 52.2068C24.7053 52.2068 22.6577 48.782 22.6577 44.8769C22.6577 39.4995 26.1151 37.358 29.281 37.358C31.7775 37.358 32.9274 38.4445 33.7307 39.1846V31.6657C33.6362 30.4533 32.9589 30.3194 31.2656 30.3588V29.3983H31.2578Z" fill="#1A2E51"/>
<path d="M38.0701 37.7439H44.4414V38.6729C43.8034 38.6729 43.0946 38.7359 43.0946 39.4445C43.0946 39.6964 43.1891 39.9248 43.3152 40.1767L46.8355 48.2073L50.4189 40.1452C50.5842 39.7909 50.6472 39.6335 50.6472 39.4445C50.6157 38.8383 49.9778 38.7753 49.1115 38.6729V37.7439H54.0416V38.6729C52.4114 38.7989 52.2854 39.1217 51.8364 40.0507L46.4575 51.829H45.5597L40.1492 40.0901C39.5743 38.9721 39.2199 38.7438 38.0701 38.6808V37.7518V37.7439Z" fill="#1A2E51"/>
<path d="M62.3583 43.885C61.7204 44.1054 61.0509 44.3653 60.3736 44.5542C59.6412 44.7747 58.9009 44.94 58.263 45.3494C57.0187 46.1131 56.9557 47.176 56.9557 47.6877C56.9557 49.3175 58.1055 49.9867 59.2632 49.9867C60.6414 49.9867 61.6258 49.2151 62.3661 48.6404V43.8771L62.3583 43.885ZM62.3268 41.2317C62.3268 40.783 62.3268 40.3657 62.2008 39.9484C61.7519 38.4761 60.2791 38.3817 59.7042 38.3817C59.3813 38.3817 57.8771 38.3817 57.4991 39.9169C57.4046 40.3027 57.4046 40.6806 57.2392 41.0349C56.8848 41.7356 56.1524 41.7671 55.9004 41.7671C55.6798 41.7671 54.3961 41.7671 54.3961 40.5547C54.3961 39.791 55.5775 37.3582 59.8696 37.3582C63.39 37.3582 65.1147 38.9879 65.1147 40.9404V49.034C65.1462 49.5143 65.1777 50.3804 66.0755 50.3804C67.0993 50.3804 67.3828 49.2624 67.5482 48.6483H68.5405C68.2491 49.7348 67.6742 51.9471 65.1777 51.9471C64.1539 51.9471 63.6105 51.5928 63.2876 51.3724C62.6182 50.7976 62.5237 50.1205 62.4213 49.5458C61.6889 50.2465 59.9562 51.9471 57.7196 51.9471C55.735 51.9471 54.1047 50.8291 54.1047 48.3648C54.1047 45.6092 55.7665 44.5621 58.263 43.9795C59.0978 43.759 59.9562 43.6252 60.8225 43.4047C61.3345 43.2473 61.8464 43.0898 62.3268 42.893V41.2317Z" fill="#1A2E51"/>
<path d="M68.3752 38.6414C70.6749 38.3186 71.1868 38.1612 72.8879 37.429C73.2029 38.3265 73.2344 38.5784 73.3683 39.5075C74.6126 38.5469 76.1877 37.366 78.7158 37.366C79.6451 37.366 80.7949 37.5549 81.7557 38.421C82.874 39.4445 82.9055 40.6648 82.937 41.6568V49.5536C82.937 50.5771 83.386 50.8999 85.1816 50.8999V51.829H77.881V50.8999C79.5821 50.774 80.1255 50.6795 80.157 49.5536V42.3261C80.1255 41.586 80.094 40.7593 79.6451 40.1216C79.3222 39.6413 78.5583 39.0351 77.2431 39.0351C75.3844 39.0351 74.2661 40.0901 73.5652 40.7278V49.4276C73.5967 50.6401 74.1716 50.8054 75.8727 50.8999V51.829H68.5485V50.8999C70.5646 50.8999 70.7851 50.4197 70.8166 49.3647V40.9483C70.7851 39.6413 69.9818 39.6413 68.3831 39.6413V38.6493L68.3752 38.6414Z" fill="#1A2E51"/>
<path d="M84.2129 38.0353C85.0792 37.7755 86.4259 37.3975 87.1583 35.2246C87.4418 34.39 87.5127 33.5318 87.5757 32.6973H88.6941V37.7518H92.4428V38.7753H88.6941V47.735C88.6941 48.1523 88.6941 48.5381 88.7886 48.916C89.0091 49.8135 89.584 50.2938 90.3873 50.2938C91.4741 50.2938 92.2144 49.3962 92.7263 48.79L93.4272 49.3962C92.5924 50.5142 91.4741 51.9865 89.2375 51.9865C88.4027 51.9865 87.5757 51.7267 87.0008 51.1834C86.0085 50.2859 85.914 48.8136 85.914 47.7271L86.0085 38.7675H84.2129V38.0274V38.0353Z" fill="#1A2E51"/>
<path d="M102.137 43.885C101.5 44.1054 100.83 44.3653 100.153 44.5542C99.4126 44.7747 98.6801 44.94 98.0422 45.3494C96.79 46.1131 96.727 47.176 96.727 47.6877C96.727 49.3175 97.8768 49.9867 99.0267 49.9867C100.405 49.9867 101.397 49.2151 102.13 48.6404V43.8771L102.137 43.885ZM102.106 41.2317C102.106 40.783 102.106 40.3657 101.98 39.9484C101.531 38.4761 100.058 38.3817 99.4835 38.3817C99.1606 38.3817 97.6563 38.3817 97.2783 39.9169C97.1838 40.3027 97.1838 40.6806 97.0184 41.0349C96.6719 41.7356 95.9316 41.7671 95.6796 41.7671C95.4591 41.7671 94.1754 41.7671 94.1754 40.5547C94.1754 39.791 95.3567 37.3582 99.6488 37.3582C103.169 37.3582 104.894 38.9879 104.894 40.9404V49.034C104.925 49.5143 104.957 50.3804 105.855 50.3804C106.879 50.3804 107.17 49.2624 107.327 48.6483H108.32C108.028 49.7348 107.461 51.9471 104.965 51.9471C103.941 51.9471 103.398 51.5928 103.075 51.3724C102.405 50.7976 102.311 50.1205 102.208 49.5458C101.476 50.2465 99.7433 51.9471 97.5067 51.9471C95.5221 51.9471 93.8918 50.8291 93.8918 48.3648C93.8918 45.6092 95.5536 44.5621 98.0501 43.9795C98.877 43.759 99.7433 43.6252 100.61 43.4047C101.122 43.2473 101.633 43.0898 102.114 42.893V41.2317H102.106Z" fill="#1A2E51"/>
<path d="M111.58 42.704C111.58 43.6331 111.58 46.6406 114.305 46.6406C117.03 46.6406 117.093 42.9638 117.093 42.1923C117.093 41.4207 117.093 38.2872 114.376 38.2872C112.517 38.2872 111.588 39.7595 111.588 42.704M121.763 37.429C122.976 37.429 123.362 38.1927 123.362 38.7753C123.362 39.1926 123.173 39.9563 122.149 39.9563C121.732 39.9563 121.48 39.7988 121.251 39.539C120.897 39.0902 120.834 38.9958 120.353 38.9958C119.81 38.9958 119.424 39.2871 119.038 39.5705C119.361 40.2397 119.771 41.0743 119.771 42.5151C119.771 45.2392 118.014 46.7036 116.03 47.1524C114.974 47.4122 113.888 47.4122 112.832 47.5696C110.722 47.8924 110.493 48.5931 110.493 48.853C110.493 49.4277 110.974 49.4277 112.895 49.4907C117.983 49.6167 119.842 49.7426 121.117 51.3802C121.818 52.3093 121.952 53.3013 121.952 54.0335C121.952 57.5843 119.267 60.5918 114.494 60.5918C110.816 60.5918 107.453 58.7968 107.453 55.8207C107.453 54.2539 108.446 53.3564 109.438 52.9391C110.399 52.5219 111.998 52.3329 111.998 52.4274C111.998 52.4589 111.935 52.4904 111.777 52.5848C111.486 52.7108 109.824 53.6083 109.824 55.5924C109.824 57.8992 111.903 59.2062 114.596 59.2062C117.093 59.2062 119.747 57.9937 119.747 55.5924C119.747 53.1911 117.376 52.8761 115.715 52.7108C112.769 52.451 112.1 52.388 111.171 52.1046C109.792 51.7188 108.871 50.8606 108.871 49.4198C108.871 47.6877 110.596 47.2153 111.753 46.8925C110.635 46.3493 108.871 45.5462 108.871 42.5702C108.871 39.3107 111.241 37.3896 114.313 37.3896C116.778 37.3896 118.022 38.5076 118.605 39.0194C119.464 38.3187 120.527 37.4211 121.771 37.4211" fill="#1A2E51"/>
<path d="M133.017 43.0583C132.986 41.8773 132.954 40.7908 132.537 40.0508C132.025 39.0588 131.033 38.5785 129.914 38.5785C126.969 38.5785 126.622 41.5231 126.425 43.0583H133.017ZM135.9 48.8136C134.97 50.2229 133.624 52.2699 130.206 52.2699C129.245 52.2699 127.166 52.1754 125.37 50.4433C123.582 48.7191 123.323 46.5697 123.323 45.0345C123.323 40.2633 126.331 37.3582 130.111 37.3582C131.678 37.3582 133.214 37.9329 134.301 39.0509C135.963 40.7436 136.065 42.7276 136.128 44.1999H126.362C126.362 45.6407 126.394 47.2075 126.969 48.4908C127.638 49.9631 128.954 50.8606 130.749 50.8606C133.025 50.8606 134.073 49.5458 135.065 48.3018L135.9 48.8136Z" fill="#1A2E51"/>
<path d="M84.1104 59.3872L82.2439 59.4502L83.7009 60.6705L83.1811 62.5443L84.7404 61.4736L86.284 62.5758L85.7958 60.6863L87.2685 59.4895L85.4098 59.3951L84.7798 57.5527L84.1183 59.3793L84.1104 59.3872ZM125.669 62.938L121.944 63.0639L124.85 65.5125L123.811 69.268L126.93 67.1265L130.017 69.3231L129.032 65.5519L131.978 63.1584L128.253 62.9695L126.993 59.2927L125.669 62.9458V62.938ZM92.0253 62.7175L89.6941 62.7963L91.5134 64.3236L90.8597 66.6698L92.8128 65.3314L94.7423 66.7092L94.128 64.3473L95.9709 62.8514L93.6398 62.7333L92.8522 60.4343L92.0253 62.7175ZM101.594 65.7487L98.7982 65.8432L100.98 67.6776L100.2 70.4883L102.539 68.8822L104.854 70.5356L104.122 67.7091L106.335 65.914L103.539 65.7723L102.594 63.0167L101.602 65.7566L101.594 65.7487ZM113.431 66.4179L110.17 66.5281L112.714 68.6696L111.801 71.9527L114.526 70.0789L117.227 72L116.368 68.7011L118.944 66.6069L115.691 66.4415L114.581 63.2214L113.423 66.4179H113.431Z" fill="#1A2E51"/>
<path d="M16.8142 42.7826L15.4202 34.0828L10.6477 42.6015L16.822 42.7747L16.8142 42.7826ZM3.05566 50.8369C3.78021 50.6558 4.35512 50.3172 4.7804 49.8291C5.20568 49.341 6.04836 48.0183 7.30844 45.861L16.9087 29.4219H17.6332L20.7992 48.0261C21.0039 49.2229 21.2402 49.9708 21.5237 50.2621C21.7994 50.5534 22.3979 50.7503 23.3036 50.829V51.7974H15.1918V50.829C16.1684 50.7345 16.7984 50.6164 17.0898 50.4747C17.5545 50.2621 17.7829 49.8448 17.7829 49.2229C17.7829 49.0654 17.7829 48.8922 17.7671 48.7111C17.7514 48.53 17.7435 48.3726 17.7199 48.2466L17.0111 43.9478L9.99398 43.7746L7.9306 47.4671C7.78884 47.7112 7.67071 47.9789 7.56045 48.2545C7.37932 48.7426 7.28481 49.1599 7.28481 49.4905C7.28481 49.9078 7.42657 50.1991 7.71009 50.3723C7.99361 50.5456 8.49764 50.8132 9.23006 50.8369V51.8053H3.05566V50.8369Z" fill="#1A2E51"/>
</g>
<defs>
<clipPath id="clip0_1790_89">
<rect width="143.027" height="72" fill="white"/>
</clipPath>
</defs>
</svg>
